<svg id="Layer_2" data-name="Layer 2" xmlns="http://www.w3.org/2000/svg" xmlns:xlink="http://www.w3.org/1999/xlink" viewBox="0 0 102.56 52.08">
  <defs>
    <style>
      .cls-1 {
        font-family: MyriadPro-Regular, 'Myriad Pro';
        font-size: 8.33px;
      }

      .cls-1, .cls-2 {
        fill: #fff;
      }

      .cls-3 {
        letter-spacing: 0em;
      }

      .cls-4 {
        letter-spacing: 0em;
      }

      .cls-5 {
        letter-spacing: 0em;
      }

      .cls-6 {
        letter-spacing: 0em;
      }

      .cls-7 {
        fill: none;
      }

      .cls-7, .cls-2 {
        stroke-width: 0px;
      }

      .cls-8 {
        clip-path: url(#clippath-1);
      }

      .cls-9 {
        letter-spacing: 0em;
      }

      .cls-10 {
        letter-spacing: 0em;
      }

      .cls-11 {
        clip-path: url(#clippath);
      }

      .cls-12 {
        letter-spacing: 0em;
      }

      .cls-13 {
        letter-spacing: 0em;
      }

      .cls-14 {
        letter-spacing: .03em;
      }

      .cls-15 {
        letter-spacing: 0em;
      }
    </style>
    <clipPath id="clippath">
      <rect class="cls-7" width="102.56" height="52.08"/>
    </clipPath>
    <clipPath id="clippath-1">
      <rect class="cls-7" width="102.56" height="52.08"/>
    </clipPath>
  </defs>
  <g id="Layer_1-2" data-name="Layer 1">
    <g class="cls-11">
      <text class="cls-1" transform="translate(0 42.7)"><tspan x="0" y="0">C</tspan><tspan class="cls-15" x="4.83" y="0">i</tspan><tspan class="cls-4" x="6.8" y="0">r</tspan><tspan class="cls-15" x="9.47" y="0">c</tspan><tspan class="cls-12" x="13.22" y="0">ul</tspan><tspan class="cls-15" x="19.82" y="0">a</tspan><tspan class="cls-5" x="23.85" y="0">r </tspan><tspan class="cls-6" x="28.39" y="0">s</tspan><tspan class="cls-12" x="31.71" y="0">e</tspan><tspan class="cls-14" x="35.9" y="0">r</tspan><tspan class="cls-3" x="38.85" y="0">v</tspan><tspan class="cls-15" x="42.88" y="0">i</tspan><tspan class="cls-9" x="44.85" y="0">c</tspan><tspan class="cls-5" x="48.56" y="0">e</tspan><tspan class="cls-15" x="52.75" y="0">s</tspan><tspan class="cls-12" x="56.07" y="0"> </tspan><tspan class="cls-10" x="57.86" y="0">a</tspan><tspan class="cls-12" x="61.87" y="0">t </tspan><tspan class="cls-4" x="66.44" y="0">w</tspan><tspan class="cls-12" x="72.52" y="0">o</tspan><tspan class="cls-13" x="77.11" y="0">r</tspan><tspan x="79.89" y="0">k</tspan></text>
      <path class="cls-2" d="m61.88,21.99s5.88-11.91-6.67-11.91c-10.99,0-14.59,9.64-15.23,11.99-1.26,4.62.97,8.42,6.76,8.42s8.74,0,8.74,0l1.16-3.98h-8.14s-5.88.21-3.55-4.53h16.92Zm-7.28-8.26c5.17,0,3.24,4.2,3.24,4.2h-11.1s2.38-4.2,7.85-4.2"/>
    </g>
    <polygon class="cls-2" points="70.69 0 61.04 30.52 66.05 30.52 75.7 0 70.69 0"/>
    <polygon class="cls-2" points="75.6 10.87 69.35 30.52 74.37 30.52 80.62 10.87 75.6 10.87"/>
    <polygon class="cls-2" points="82.21 6.15 77.19 6.15 78.84 .74 83.86 .74 82.21 6.15"/>
    <g class="cls-8">
      <path class="cls-2" d="m89.37,14.74c.64,0,8.95-.04,8.95-.04l1.33-3.82-9.44-.02s-5.81-.31-8.39,4.49c-2.68,4.98,1.6,6.97,4.66,6.97h4.04c.49,0,2.06.18,1.47,1.85-.5,1.43-2.22,2.29-3.32,2.33-.67.03-10.41,0-10.41,0l-1.4,4.07h10.92c.91,0,7.18-.06,8.73-6.46,1.32-5.47-4.53-5.59-5.43-5.59h-3.17c-.56,0-3.24.14-1.82-2.02.87-1.33,2.25-1.77,3.28-1.77"/>
      <path class="cls-2" d="m41.58,8.69s-.02-.02-.03-.04c-.14-.17-.26-.26-.28-.27-.09-.09-7.73-7.16-8.32-7.73-.1-.1-.21-.18-.31-.25C32.01,0,31.22,0,31.21,0h-15.39c-.26,0-.41,0-.45.02-.33.01-.57.15-.72.33-.01.01-.02.03-.03.04-.33.41-.24,1.12.19,1.54.58.56,5.27,5.16,6.54,6.4,1.11,1.08,1.04,1.79,1.05,1.82,0,.02.04.24-.12.6-.12.3-.37.73-.87,1.24-.16.16-.39.39-.64.64-.09.09-.18.17-.28.28-1.39,1.36-3.7,3.62-4.93,4.83-.36.36-.63.62-.73.72-.48.47-.54,1.26-.11,1.65.15.14.36.25.66.27.15,0,.29.02.44.02h15.4s.79,0,1.43-.39c.11-.07.22-.15.32-.25.59-.57,8.22-7.64,8.32-7.73.01,0,.12-.1.26-.26,0,0,.02-.02.02-.03.24-.28.6-.81.6-1.5v-.07c0-.67-.35-1.19-.58-1.47"/>
      <path class="cls-2" d="m15.82,21.84c-.15,0-.28,0-.42-.01h-.1c-.6-.04-1.14-.26-1.57-.66-.47-.44-.74-1.06-.75-1.74,0-.75.3-1.48.83-2l.53-.52.2-.2,4.93-4.83.19-.19.04-.04c-.43-.41-.75-.71-.85-.8-.1-.1-.21-.18-.31-.25-.64-.41-1.44-.4-1.44-.4H1.73c-.26,0-.41,0-.45.01-.33.01-.57.15-.72.33-.01.01-.02.03-.03.04-.33.41-.24,1.12.19,1.54.58.56,5.27,5.16,6.54,6.4,1.11,1.09,1.04,1.79,1.05,1.82,0,.02.03.24-.12.6-.12.3-.37.73-.87,1.24-.22.22-.53.54-.92.91-1.39,1.36-3.7,3.62-4.94,4.83-.36.36-.63.61-.73.72-.48.47-.53,1.26-.11,1.65.15.14.36.25.65.27.15,0,.29.02.44.02h15.39s.8,0,1.43-.39c.11-.07.22-.15.32-.25.59-.57,8.22-7.64,8.32-7.73.01,0,.12-.1.26-.26,0,0,.02-.02.02-.03.02-.02.05-.06.07-.09h-11.71Z"/>
    </g>
  </g>
</svg>