<?xml version="1.0" encoding="utf-8"?>
<!-- Generator: Adobe Illustrator 27.9.0, SVG Export Plug-In . SVG Version: 6.00 Build 0)  -->
<svg version="1.1" xmlns="http://www.w3.org/2000/svg" xmlns:xlink="http://www.w3.org/1999/xlink" x="0px" y="0px"
	 viewBox="0 0 425.3 229.5" style="enable-background:new 0 0 425.3 229.5;" xml:space="preserve">
<style type="text/css">
	.st0{fill:none;}
	.st1{fill:#FFFFFF;}
</style>
<g id="Calque_1">
	<rect x="0" y="-0.1" class="st0" width="425.2" height="229.6"/>
	<g>
		<g>
			<path class="st1" d="M253.8,116.9c0,0,20.3-41.2-23.1-41.2c-38,0-50.5,33.4-52.7,41.5c-4.4,16,3.4,29.1,23.4,29.1
				c20,0,30.2,0,30.2,0l4-13.8l-28.2,0c0,0-20.3,0.8-12.3-15.6H253.8z M228.6,88.3c17.9,0,11.2,14.5,11.2,14.5h-38.4
				C201.4,102.9,209.7,88.3,228.6,88.3"/>
		</g>
		<polygon class="st1" points="284.3,40.8 250.9,146.4 268.2,146.4 301.6,40.8 		"/>
		<polygon class="st1" points="301.3,78.4 279.6,146.4 297,146.4 318.6,78.4 		"/>
		<polygon class="st1" points="323.4,62.6 306,62.6 311.7,43.9 329.1,43.9 		"/>
		<g>
			<path class="st1" d="M348.9,91.8c2.2,0,31-0.1,31-0.1l4.6-13.2l-32.7-0.1c0,0-20.1-1.1-29,15.5c-9.3,17.2,5.5,24.1,16.1,24.1h14
				c1.7,0,7.1,0.6,5.1,6.4c-1.7,5-7.7,7.9-11.5,8.1c-2.3,0.1-36,0-36,0l-4.9,14.1h37.8c3.2,0,24.8-0.2,30.2-22.4
				c4.6-18.9-15.7-19.3-18.8-19.3h-11c-2,0-11.2,0.5-6.3-7C340.5,93.4,345.3,91.8,348.9,91.8"/>
			<path class="st1" d="M183.6,70.9c0,0-0.1-0.1-0.1-0.1c-0.5-0.6-0.9-0.9-0.9-0.9c-0.3-0.3-26.7-24.8-28.8-26.7
				c-0.3-0.3-0.7-0.6-1.1-0.9c-2.2-1.4-5-1.4-5-1.4H94.4c-0.9,0-1.4,0-1.6,0.1c-1.1,0.1-2,0.5-2.5,1.1c0,0-0.1,0.1-0.1,0.1
				c-1.1,1.4-0.8,3.9,0.7,5.3c2,1.9,18.2,17.9,22.6,22.2c3.8,3.8,3.6,6.2,3.6,6.3c0,0.1,0.1,0.8-0.4,2.1c-0.4,1.1-1.3,2.5-3,4.3
				c-0.6,0.6-1.3,1.3-2.2,2.2c-0.3,0.3-0.6,0.6-1,1c-4.8,4.7-12.8,12.5-17.1,16.7c-1.3,1.2-2.2,2.1-2.5,2.5
				c-1.7,1.6-1.9,4.4-0.4,5.7c0.5,0.5,1.3,0.9,2.3,0.9c0.5,0,1,0.1,1.5,0.1h42.4h10.9c0,0,2.8,0,4.9-1.4c0.4-0.2,0.7-0.5,1.1-0.9
				c2-2,28.4-26.4,28.8-26.7c0,0,0.4-0.3,0.9-0.9c0,0,0.1-0.1,0.1-0.1c0.8-1,2.1-2.8,2.1-5.2V76C185.6,73.7,184.4,71.9,183.6,70.9"
				/>
			<path class="st1" d="M94.4,116.4c-0.5,0-1,0-1.5,0l-0.3,0c-2.1-0.1-4-0.9-5.4-2.3c-1.6-1.5-2.6-3.7-2.6-6c0-2.6,1-5.1,2.9-6.9
				l1.8-1.8l0.7-0.7l17.1-16.7l0.7-0.7l0.1-0.1c-1.5-1.4-2.6-2.4-2.9-2.8c-0.3-0.3-0.7-0.6-1.1-0.9c-2.2-1.4-5-1.4-5-1.4H45.6
				c-0.9,0-1.4,0-1.6,0.1c-1.1,0.1-2,0.5-2.5,1.1c0,0-0.1,0.1-0.1,0.1c-1.1,1.4-0.8,3.9,0.7,5.3c2,1.9,18.2,17.9,22.6,22.2
				c3.8,3.8,3.6,6.2,3.6,6.3c0,0.1,0.1,0.8-0.4,2.1c-0.4,1-1.3,2.5-3,4.3c-0.7,0.8-1.8,1.9-3.2,3.2c-4.8,4.7-12.8,12.5-17.1,16.7
				c-1.3,1.2-2.2,2.1-2.5,2.5c-1.7,1.6-1.9,4.3-0.4,5.7c0.5,0.5,1.3,0.9,2.3,0.9c0.5,0,1,0.1,1.5,0.1h53.3c0,0,2.8,0,5-1.4
				c0.4-0.2,0.7-0.5,1.1-0.9c2-2,28.4-26.4,28.8-26.7c0,0,0.4-0.4,0.9-0.9c0,0,0.1-0.1,0.1-0.1c0.1-0.1,0.2-0.2,0.2-0.3H94.4z"/>
		</g>
	</g>
	<path class="st1" d="M57.1,173.5c-1.5-1.7-3.3-2.8-5.6-2.8c-3.9,0-6.9,3.6-6.9,7.3c0,3.8,3.1,7.4,7,7.4c2.3,0,3.8-1,5.3-2.7h4.5
		c-1.6,3.8-5.6,6.3-9.8,6.3c-6,0-11-5-11-11.1c0-6,5-10.9,10.9-10.9c4.3,0,8.2,2.5,10,6.4H57.1z"/>
	<path class="st1" d="M63.7,170.9v-3.5h3.8v3.5H63.7z M63.7,188.6v-15.8h3.8v15.8H63.7z"/>
	<path class="st1" d="M74.9,179.7v8.9h-3.8v-15.8h3.5v1.4h0.1c1.1-1.5,1.8-1.9,3.7-1.9v3.7C75.9,176,74.9,177.3,74.9,179.7z"/>
	<path class="st1" d="M88.2,189.1c-4.7,0-8.4-3.8-8.4-8.5c0-4.6,3.8-8.4,8.4-8.4c3.7,0,6.8,2.3,8,5.8h-4.3c-0.8-1.5-1.9-2.3-3.7-2.3
		c-2.8,0-4.6,2.3-4.6,5c0,2.7,1.9,5,4.8,5c1.5,0,2.7-0.9,3.5-2.2h4.3C94.9,186.9,91.9,189.1,88.2,189.1z"/>
	<path class="st1" d="M109.3,188.6V187h-0.1c-1.1,1.5-2.3,2.1-4.1,2.1c-2,0-4.1-0.8-5.3-2.5c-1.1-1.6-1.2-3.6-1.2-5.4v-8.4h3.8v8.1
		c0,2.3,0.5,4.8,3.3,4.8c2.6,0,3.2-2.7,3.2-4.8v-8.1h3.8v15.8H109.3z"/>
	<path class="st1" d="M116.2,188.6v-21.1h3.8v21.1H116.2z"/>
	<path class="st1" d="M135.8,188.6v-2c-1.3,1.5-3.6,2.5-5.5,2.5c-4.8,0-7.7-4-7.7-8.5c0-4.5,3.3-8.4,7.9-8.4c1.7,0,3.4,0.7,4.7,1.9
		c0.2,0.2,0.4,0.4,0.6,0.7h0.1v-2h3.5v15.8H135.8z M131.1,175.7c-2.8,0-4.7,2.3-4.7,5c0,2.7,2,4.9,4.7,4.9c2.8,0,4.6-2.3,4.6-5
		S133.9,175.7,131.1,175.7z"/>
	<path class="st1" d="M146.5,179.7v8.9h-3.8v-15.8h3.5v1.4h0.1c1.1-1.5,1.8-1.9,3.7-1.9v3.7C147.5,176,146.5,177.3,146.5,179.7z"/>
	<path class="st1" d="M165.1,189.1c-1.8,0-3.6-0.7-4.7-2.1c-0.8-1.1-1.1-2.1-1.2-3.4h3.9c0.3,1.1,0.8,2,2.1,2c0.9,0,1.7-0.6,1.7-1.6
		c0-0.3-0.1-0.6-0.2-0.8c-0.5-0.7-2.5-1.3-3.3-1.5c-2.1-0.7-3.5-2.2-3.5-4.5c0-2.9,2.5-4.9,5.3-4.9s5,2.1,5.2,4.8h-3.7
		c-0.2-0.8-0.7-1.4-1.5-1.4c-0.8,0-1.5,0.6-1.5,1.4c0,0.8,0.7,1.1,1.3,1.3c0.5,0.2,0.9,0.3,1.4,0.5c2.5,0.8,4.4,1.8,4.4,4.7
		C170.6,186.7,168.2,189.1,165.1,189.1z"/>
	<path class="st1" d="M188.6,182.3h-12.3c0.1,0.4,0.3,0.8,0.5,1.1c0.9,1.3,2.3,2.1,3.9,2.1c1.5,0,2.9-0.6,3.7-2h4
		c-1,3.2-4.3,5.5-7.6,5.5c-4.7,0-8.4-3.7-8.4-8.4c0-4.7,3.5-8.5,8.3-8.5c4.6,0,8.2,3.7,8.2,8.2C188.8,181.1,188.7,181.7,188.6,182.3
		z M180.7,175.7c-2.3,0-3.9,1.4-4.5,3.6h8.8C184.6,177,183,175.7,180.7,175.7z"/>
	<path class="st1" d="M195.5,179.7v8.9h-3.8v-15.8h3.5v1.4h0.1c1.1-1.5,1.8-1.9,3.7-1.9v3.7C196.5,176,195.5,177.3,195.5,179.7z"/>
	<path class="st1" d="M208.8,188.6h-3l-6.4-15.8h4.1l3.8,10.5h0.1l3.6-10.5h4.2L208.8,188.6z"/>
	<path class="st1" d="M217.1,170.9v-3.5h3.8v3.5H217.1z M217.1,188.6v-15.8h3.8v15.8H217.1z"/>
	<path class="st1" d="M232.2,189.1c-4.7,0-8.4-3.8-8.4-8.5c0-4.6,3.8-8.4,8.4-8.4c3.7,0,6.8,2.3,8,5.8h-4.3
		c-0.8-1.5-1.9-2.3-3.7-2.3c-2.8,0-4.6,2.3-4.6,5c0,2.7,1.9,5,4.8,5c1.5,0,2.7-0.9,3.5-2.2h4.3C238.9,186.9,236,189.1,232.2,189.1z"
		/>
	<path class="st1" d="M258.5,182.3h-12.3c0.1,0.4,0.3,0.8,0.5,1.1c0.9,1.3,2.3,2.1,3.9,2.1c1.5,0,2.9-0.6,3.7-2h4
		c-1,3.2-4.3,5.5-7.6,5.5c-4.7,0-8.4-3.7-8.4-8.4c0-4.7,3.5-8.5,8.3-8.5c4.6,0,8.2,3.7,8.2,8.2C258.7,181.1,258.6,181.7,258.5,182.3
		z M250.5,175.7c-2.3,0-3.9,1.4-4.5,3.6h8.8C254.4,177,252.8,175.7,250.5,175.7z"/>
	<path class="st1" d="M266.3,189.1c-1.8,0-3.6-0.7-4.7-2.1c-0.8-1.1-1.1-2.1-1.2-3.4h3.9c0.3,1.1,0.8,2,2.1,2c0.9,0,1.7-0.6,1.7-1.6
		c0-0.3-0.1-0.6-0.2-0.8c-0.5-0.7-2.5-1.3-3.3-1.5c-2.1-0.7-3.5-2.2-3.5-4.5c0-2.9,2.5-4.9,5.3-4.9c2.8,0,5,2.1,5.2,4.8h-3.7
		c-0.2-0.8-0.7-1.4-1.5-1.4c-0.8,0-1.5,0.6-1.5,1.4c0,0.8,0.7,1.1,1.3,1.3c0.5,0.2,0.9,0.3,1.4,0.5c2.5,0.8,4.4,1.8,4.4,4.7
		C271.8,186.7,269.4,189.1,266.3,189.1z"/>
	<path class="st1" d="M294.9,188.6v-2c-1.3,1.5-3.6,2.5-5.5,2.5c-4.8,0-7.7-4-7.7-8.5c0-4.5,3.3-8.4,7.9-8.4c1.7,0,3.4,0.7,4.7,1.9
		c0.2,0.2,0.4,0.4,0.6,0.7h0.1v-2h3.5v15.8H294.9z M290.2,175.7c-2.8,0-4.7,2.3-4.7,5c0,2.7,2,4.9,4.7,4.9c2.8,0,4.6-2.3,4.6-5
		S293,175.7,290.2,175.7z"/>
	<path class="st1" d="M306.3,176.1v12.5h-3.8v-12.5h-1.9v-3.4h1.9v-5.3h3.8v5.3h2.3v3.4H306.3z"/>
	<path class="st1" d="M333.9,188.6h-2.3l-3-10.3h-0.1l-3,10.3h-2.3l-5.7-15.8h4l2.9,9.7h0.1l2.6-9.7h3l2.6,9.7h0.1l2.9-9.7h4
		L333.9,188.6z"/>
	<path class="st1" d="M349.4,189.1c-4.6,0-8.4-3.8-8.4-8.4c0-4.6,3.8-8.5,8.4-8.5s8.4,3.8,8.4,8.4
		C357.8,185.4,354.2,189.1,349.4,189.1z M349.4,175.7c-2.7,0-4.6,2.4-4.6,5c0,2.7,1.9,4.9,4.6,4.9c2.7,0,4.6-2.3,4.6-4.9
		C354,178.1,352.1,175.7,349.4,175.7z"/>
	<path class="st1" d="M364.4,179.7v8.9h-3.8v-15.8h3.5v1.4h0.1c1.1-1.5,1.8-1.9,3.7-1.9v3.7C365.3,176,364.4,177.3,364.4,179.7z"/>
	<path class="st1" d="M379.7,188.6l-5.4-7.4h-0.1v7.4h-3.8v-21.1h3.8v12.7h0.1l5-7.4h4.4l-5.7,7.8l6.4,8.1H379.7z"/>
</g>
<g id="ZONE_x5F_PROTECTION">
</g>
</svg>
