<?xml version="1.0" encoding="UTF-8"?>
<svg id="Layer_2" data-name="Layer 2" xmlns="http://www.w3.org/2000/svg" xmlns:xlink="http://www.w3.org/1999/xlink" viewBox="0 0 99.21 98.08">
  <defs>
    <style>
      .cls-1 {
        fill: none;
      }

      .cls-1, .cls-2 {
        stroke-width: 0px;
      }

      .cls-2 {
        fill: #fff;
      }

      .cls-3 {
        clip-path: url(#clippath);
      }
    </style>
    <clipPath id="clippath">
      <rect class="cls-1" width="99.21" height="98.08"/>
    </clipPath>
  </defs>
  <g id="Layer_1-2" data-name="Layer 1">
    <g class="cls-3">
      <path class="cls-2" d="m64.53,55.14h-.02c-.28,0-2,.04-3.45.96-.3.18-.58.4-.83.65-1.18,1.14-16.45,15.26-16.57,15.37-.22.18-.43.39-.63.62l-.06.07c-.96,1.14-1.47,2.43-1.47,3.72v.15c0,1.27.49,2.53,1.41,3.66l.09.1c.15.17.38.42.64.64.15.13,15.44,14.27,16.59,15.39.24.24.51.45.81.64,1.51.96,3.29.97,3.49.97h30.75c.46,0,.8-.01,1-.04.9-.05,1.67-.42,2.2-1.04l.09-.11c1.03-1.28.82-3.34-.47-4.6l-2.93-2.86c-3.31-3.24-8.38-8.18-10.14-9.91-1.58-1.54-1.74-2.55-1.75-2.82v-.21c0-.09.03-.28.15-.56.26-.64.78-1.37,1.5-2.1.31-.32.76-.77,1.26-1.26l11.88-11.61c.73-.72,1.15-1.71,1.14-2.73-.01-.88-.35-1.67-.93-2.22-.54-.51-1.25-.8-2.04-.84h-.13c-.27-.02-.54-.03-.82-.03h-30.75Zm-2.26,40.04c-.16-.1-.31-.22-.45-.35-1.2-1.16-16.49-15.3-16.64-15.43l-.05-.04c-.17-.15-.32-.31-.38-.38l-.07-.09c-.41-.5-.9-1.28-.9-2.21v-.15c0-.93.49-1.72.91-2.23l.06-.07c.09-.1.22-.24.37-.37l.05-.04c.15-.14,15.44-14.28,16.64-15.43.14-.14.28-.25.45-.35.96-.6,2.21-.61,2.24-.61h30.76c.24,0,.47.01.7.02h.13c.25.02.43.09.58.23.18.16.21.43.21.57,0,.39-.17.79-.45,1.07l-11.32,11.06-.56.56c-.51.5-.96.96-1.29,1.28-.94.96-1.61,1.92-1.98,2.83-.32.75-.38,1.38-.32,1.77.08,1.34.92,2.83,2.44,4.32,1.76,1.72,6.83,6.67,10.14,9.91l2.93,2.86c.47.46.54,1.22.32,1.49l-.09.11c-.12.15-.33.23-.61.24h-.04s-.07.01-.07.01c-.05,0-.28.02-.73.02h-30.76s-1.29,0-2.24-.61"/>
      <path class="cls-2" d="m21.44,40.82c-1.27,0-2.54.48-3.66,1.4l-.1.08c-.17.14-.42.38-.64.63-.13.14-14.3,15.32-15.42,16.46-.24.24-.45.51-.64.8C.02,61.7,0,63.48,0,63.66v30.51c0,.46.01.79.03.99.06.89.42,1.66,1.05,2.18l.11.09c1.28,1.03,3.35.82,4.61-.46l2.86-2.9c3.24-3.29,8.2-8.32,9.93-10.06,1.54-1.56,2.56-1.73,2.83-1.74h.21c.09,0,.28.03.56.15.45.18,1.18.58,2.1,1.48.32.31.77.76,1.26,1.25l11.63,11.78c.72.73,1.71,1.14,2.74,1.13.88,0,1.67-.34,2.22-.92.51-.54.81-1.24.84-2.02v-.13c.02-.27.03-.53.03-.81v-30.51c0-.2-.01-1.96-.96-3.44-.18-.29-.4-.57-.65-.82-1.14-1.17-15.29-16.32-15.4-16.44-.18-.22-.39-.43-.62-.63l-.07-.06c-1.14-.95-2.43-1.46-3.73-1.46h-.15ZM2.67,95.7l-.11-.09c-.15-.12-.23-.32-.24-.61v-.04s-.01-.07-.01-.07c0-.05-.02-.28-.02-.73v-30.51s0-1.28.61-2.23c.1-.16.22-.31.35-.44,1.16-1.19,15.33-16.36,15.46-16.51l.04-.04c.15-.17.31-.32.38-.38l.09-.07c.5-.41,1.28-.89,2.21-.89h.15c.94,0,1.73.49,2.23.9l.07.06c.1.09.24.22.37.37l.04.05c.14.15,14.31,15.32,15.46,16.51.14.14.25.28.35.44.6.95.61,2.21.61,2.23v30.52c0,.24-.01.46-.02.69v.13c-.02.25-.09.43-.23.58-.16.18-.43.2-.58.21-.37,0-.79-.16-1.07-.45l-11.08-11.23-.56-.56c-.5-.51-.96-.96-1.28-1.28-.96-.94-1.92-1.6-2.84-1.97-.75-.31-1.38-.37-1.78-.32-1.34.07-2.84.91-4.33,2.41-1.73,1.75-6.69,6.77-9.93,10.06l-2.86,2.91c-.3.3-.72.44-1.05.44-.19,0-.35-.04-.44-.12"/>
      <path class="cls-2" d="m34.69,0H3.94C3.48,0,3.15.01,2.94.04c-.89.05-1.67.42-2.2,1.04l-.09.11c-1.03,1.28-.82,3.34.47,4.6l2.93,2.86c3.32,3.24,8.38,8.18,10.14,9.91,1.58,1.54,1.74,2.55,1.75,2.82v.21c0,.09-.03.28-.15.56-.18.45-.59,1.18-1.5,2.1-.32.32-.76.77-1.26,1.26L1.16,37.12c-.74.72-1.15,1.71-1.14,2.73.01.88.35,1.67.93,2.22.54.51,1.25.8,2.04.84h.14c.27.02.53.03.8.03h30.75c.19,0,1.97-.01,3.47-.96.3-.18.58-.4.83-.65,1.18-1.14,16.45-15.26,16.57-15.37.22-.18.43-.39.63-.62l.06-.07c.96-1.14,1.47-2.43,1.47-3.72v-.15c0-1.27-.49-2.53-1.41-3.66l-.09-.1c-.14-.17-.38-.42-.64-.64-.14-.13-15.44-14.27-16.59-15.39-.24-.24-.51-.45-.81-.64C36.71.04,34.98,0,34.71,0h-.02ZM3.21,2.31s.28-.02.73-.02h30.76s1.29,0,2.24.61c.16.11.31.22.44.35,1.2,1.16,16.49,15.3,16.64,15.43l.05.04c.17.15.32.31.38.37l.08.09h0c.41.5.89,1.28.89,2.21v.15c0,.93-.49,1.72-.91,2.23l-.06.07c-.09.1-.22.24-.37.37l-.05.04c-.15.14-15.44,14.28-16.64,15.43-.14.14-.28.25-.45.35-.96.61-2.23.62-2.24.61H3.93c-.24,0-.46-.01-.69-.02h-.14c-.25-.02-.43-.09-.59-.23-.18-.17-.21-.43-.21-.58,0-.39.17-.8.45-1.07l11.32-11.06.57-.56c.51-.5.96-.96,1.29-1.28.94-.96,1.61-1.92,1.98-2.83.32-.75.38-1.38.32-1.77-.08-1.34-.92-2.83-2.44-4.32-1.76-1.72-6.83-6.67-10.14-9.91l-2.93-2.86c-.47-.46-.54-1.21-.32-1.5l.08-.1h0c.12-.15.33-.23.61-.24h.04s.07-.01.07-.01Z"/>
      <path class="cls-2" d="m93.4,1.12l-3.26,3.31c-3.24,3.29-7.88,8.01-9.54,9.7-1.54,1.57-2.56,1.73-2.83,1.74h-.2c-.09,0-.28-.03-.56-.15-.45-.18-1.18-.58-2.1-1.49-.32-.31-.77-.76-1.26-1.25L62.02,1.15c-.72-.73-1.71-1.13-2.74-1.13-.88.01-1.67.34-2.22.93-.51.54-.81,1.24-.84,2.03v.13c-.02.27-.03.53-.03.81v30.6c0,.2.01,1.97.96,3.45.18.29.4.57.65.82,1.14,1.17,15.29,16.37,15.4,16.49.23.27.47.49.63.63l.07.06c1.14.96,2.43,1.46,3.73,1.46h.15c1.27,0,2.54-.49,3.66-1.41l.1-.08c.17-.15.42-.38.64-.64.13-.14,14.3-15.37,15.42-16.51.24-.24.45-.51.64-.8.96-1.5.97-3.28.97-3.47V3.93c0-.46-.01-.79-.03-1-.05-.89-.43-1.67-1.04-2.19l-.11-.09C97.47.21,96.78,0,96.07,0c-.95,0-1.94.38-2.66,1.12m-15.48,17.03c1.34-.07,2.84-.91,4.32-2.42,1.66-1.68,6.3-6.4,9.54-9.7l3.26-3.31c.46-.47,1.22-.54,1.5-.32l.11.09c.15.12.23.32.24.61v.04s.01.07.01.07c0,.04.02.28.02.73v30.61s0,1.28-.61,2.23c-.1.16-.22.31-.35.44-1.16,1.19-15.33,16.42-15.46,16.56l-.04.04c-.15.17-.31.32-.37.38l-.09.08c-.5.41-1.28.89-2.21.89h-.15c-.94,0-1.73-.49-2.23-.91l-.07-.06c-.14-.12-.27-.25-.37-.37l-.04-.05c-.14-.15-14.31-15.37-15.46-16.56-.14-.14-.25-.28-.35-.45-.61-.95-.61-2.21-.61-2.23V3.92c0-.24.01-.46.02-.7v-.13c.02-.25.09-.43.23-.58.17-.18.43-.21.58-.21.4,0,.8.17,1.07.44l11.08,11.27.56.56c.5.51.96.96,1.28,1.28.96.94,1.92,1.61,2.84,1.97.59.25,1.1.34,1.49.34.11,0,.2,0,.29-.02"/>
    </g>
  </g>
</svg>